# xmcd CD database file generated by Grip 2.92
# 
# Track frame offsets:
#       183
#       11115
#       21665
#       34085
#       46185
#       57903
#       66813
#       78185
#       88635
#       97528
# 
# Disc length: 1452 seconds
# 
# Revision: 3
# Processed by: cddbd v1.4b41PL1 Copyright (c) Steve Scherf et al.
# Submitted via: Grip 2.92
# 
DISCID=7105aa0a
DTITLE=Faron Young - All-Time Greatest Hits
DYEAR=1900
DGENRE=
TTITLE0=Hello Walls
TTITLE1=Live Fast, Love Hard, Die Young
TTITLE2=Sweet Dreams
TTITLE3=Goin' Steady
TTITLE4=Country Girl
TTITLE5=Alone With You
TTITLE6=I Miss You Already (And You're Not Even Gone)
TTITLE7=Riverboat
TTITLE8=The Comeback
TTITLE9=Your Old Used To Be
EXTD=
EXTT0=
EXTT1=
EXTT2=
EXTT3=
EXTT4=
EXTT5=
EXTT6=
EXTT7=
EXTT8=
EXTT9=
PLAYORDER=
